<?xml version="1.0" encoding="UTF-8" standalone="no"?>
<svg
   fill="none"
   height="27"
   viewBox="0 0 138 27"
   width="138"
   version="1.1"
   id="svg158"
   sodipodi:docname="logo-2.svg"
   inkscape:version="1.2.2 (b0a84865, 2022-12-01)"
   xmlns:inkscape="http://www.inkscape.org/namespaces/inkscape"
   xmlns:sodipodi="http://sodipodi.sourceforge.net/DTD/sodipodi-0.dtd"
   xmlns="http://www.w3.org/2000/svg"
   xmlns:svg="http://www.w3.org/2000/svg">
  <defs
     id="defs162" />
  <sodipodi:namedview
     id="namedview160"
     pagecolor="#ffffff"
     bordercolor="#000000"
     borderopacity="0.25"
     inkscape:showpageshadow="2"
     inkscape:pageopacity="0.0"
     inkscape:pagecheckerboard="0"
     inkscape:deskcolor="#d1d1d1"
     showgrid="false"
     inkscape:zoom="6.1806371"
     inkscape:cx="63.342985"
     inkscape:cy="22.89408"
     inkscape:window-width="1920"
     inkscape:window-height="1027"
     inkscape:window-x="1512"
     inkscape:window-y="25"
     inkscape:window-maximized="1"
     inkscape:current-layer="svg158" />
  <g
     id="g282"
     transform="translate(0,-0.19855994)">
    <path
       d="M 8.504306,19.027937 V 13.69856 8.3691824 l 9.231111,-5.3542377 9.230651,5.3542377 v 5.3293776 5.329377 l -9.230651,5.662234 z"
       fill="#8e44ad"
       id="path2"
       style="isolation:isolate;stroke-width:0.460381" />
    <path
       d="M 8.504306,19.027937 V 13.69856 8.3691824 l 9.231111,-5.3542377 9.230651,5.3542377 v 5.3293776 5.329377 l -9.230651,-4.131464 z"
       fill="#582d79"
       id="path4"
       style="isolation:isolate;stroke-width:0.460381" />
    <path
       d="M 6.218051,20.34647 V 13.69856 7.0506499 l 5.759373,-3.3285594 5.759374,-3.32395462 5.754771,3.32395462 5.759373,3.3285594 v 6.6479101 6.64791 l -5.759373,3.328559 -5.754771,3.323955 -5.759374,-3.323955 z M 8.5199587,19.020571 V 13.69856 8.3765489 l 4.6084203,-2.6564015 4.608419,-2.6610064 4.603816,2.6610064 4.60842,2.6564015 v 5.3220111 5.322011 l -4.60842,2.656402 -4.603816,2.661005 -4.608419,-2.661005 z"
       fill-rule="evenodd"
       fill="#ffffff"
       id="path6"
       style="isolation:isolate;stroke-width:0.460381" />
    <path
       d="m 14.285318,19.735544 v 0 q -1.198834,0 -1.869609,-0.770679 v 0 0 q -0.670778,-0.770678 -0.670778,-2.097959 v 0 -4.395724 h 3.025629 v 4.267277 0 q 0,0.328252 0.178167,0.506421 v 0 0 q 0.178628,0.178627 0.464065,0.178627 v 0 0 q 0.285436,0 0.585145,-0.171262 v 0 l 0.15699,1.983785 v 0 q -0.31398,0.242621 -0.820861,0.371068 v 0 0 q -0.506419,0.128446 -1.048748,0.128446 z m -1.027572,-8.334749 v 0 q -0.670776,0 -1.13484,-0.421249 v 0 0 Q 11.6593,10.558757 11.6593,9.9450689 v 0 0 q 0,-0.6136885 0.485243,-1.0275715 v 0 0 q 0.485243,-0.4138829 1.113203,-0.4138829 v 0 0 q 0.656504,0 1.13438,0.4281548 v 0 0 q 0.478337,0.4281547 0.478337,1.0132996 v 0 0 q 0,0.6279601 -0.485243,1.0418431 v 0 0 q -0.485242,0.413883 -1.127474,0.413883 z m 5.466111,8.220574 V 11.971668 H 16.682984 V 9.8023506 h 7.40708 v 2.1693174 h -2.040872 v 7.649701 z"
       fill-rule="evenodd"
       fill="#ffffff"
       id="path8"
       style="isolation:isolate;stroke-width:0.460381" />
  </g>
  <text
     xml:space="preserve"
     style="font-size:22.5764px;font-family:'Paytone One';-inkscape-font-specification:'Paytone One';fill:#582d79;fill-opacity:1;stroke:none;stroke-width:1.88136"
     x="44.801991"
     y="21.254993"
     id="text732"><tspan
       sodipodi:role="line"
       id="tspan730"
       x="44.801991"
       y="21.254993"
       style="fill:#582d79;fill-opacity:1;stroke-width:1.88136">ESCENIT</tspan></text>
</svg>
