<?xml version="1.0" encoding="UTF-8" standalone="no"?>
<svg
   fill="none"
   height="27"
   viewBox="0 0 138 27"
   width="138"
   version="1.1"
   id="svg158"
   sodipodi:docname="logo-2.svg"
   inkscape:version="1.2.2 (b0a84865, 2022-12-01)"
   xmlns:inkscape="http://www.inkscape.org/namespaces/inkscape"
   xmlns:sodipodi="http://sodipodi.sourceforge.net/DTD/sodipodi-0.dtd"
   xmlns="http://www.w3.org/2000/svg"
   xmlns:svg="http://www.w3.org/2000/svg">
  <defs
     id="defs162" />
  <sodipodi:namedview
     id="namedview160"
     pagecolor="#ffffff"
     bordercolor="#000000"
     borderopacity="0.25"
     inkscape:showpageshadow="2"
     inkscape:pageopacity="0.0"
     inkscape:pagecheckerboard="0"
     inkscape:deskcolor="#d1d1d1"
     showgrid="false"
     inkscape:zoom="6.1806371"
     inkscape:cx="63.423882"
     inkscape:cy="22.974978"
     inkscape:window-width="1367"
     inkscape:window-height="456"
     inkscape:window-x="0"
     inkscape:window-y="136"
     inkscape:window-maximized="0"
     inkscape:current-layer="svg158" />
  <g
     id="g282"
     transform="translate(0,-0.19855994)">
    <path
       d="M 8.504306,19.027937 V 13.69856 8.3691824 l 9.231111,-5.3542377 9.230651,5.3542377 v 5.3293776 5.329377 l -9.230651,5.662234 z"
       fill="#8e44ad"
       id="path2"
       style="isolation:isolate;stroke-width:0.460381" />
    <path
       d="M 8.504306,19.027937 V 13.69856 8.3691824 l 9.231111,-5.3542377 9.230651,5.3542377 v 5.3293776 5.329377 l -9.230651,-4.131464 z"
       fill="#582d79"
       id="path4"
       style="isolation:isolate;stroke-width:0.460381" />
    <path
       d="M 6.218051,20.34647 V 13.69856 7.0506499 l 5.759373,-3.3285594 5.759374,-3.32395462 5.754771,3.32395462 5.759373,3.3285594 v 6.6479101 6.64791 l -5.759373,3.328559 -5.754771,3.323955 -5.759374,-3.323955 z M 8.5199587,19.020571 V 13.69856 8.3765489 l 4.6084203,-2.6564015 4.608419,-2.6610064 4.603816,2.6610064 4.60842,2.6564015 v 5.3220111 5.322011 l -4.60842,2.656402 -4.603816,2.661005 -4.608419,-2.661005 z"
       fill-rule="evenodd"
       fill="#ffffff"
       id="path6"
       style="isolation:isolate;stroke-width:0.460381" />
    <path
       d="m 14.285318,19.735544 v 0 q -1.198834,0 -1.869609,-0.770679 v 0 0 q -0.670778,-0.770678 -0.670778,-2.097959 v 0 -4.395724 h 3.025629 v 4.267277 0 q 0,0.328252 0.178167,0.506421 v 0 0 q 0.178628,0.178627 0.464065,0.178627 v 0 0 q 0.285436,0 0.585145,-0.171262 v 0 l 0.15699,1.983785 v 0 q -0.31398,0.242621 -0.820861,0.371068 v 0 0 q -0.506419,0.128446 -1.048748,0.128446 z m -1.027572,-8.334749 v 0 q -0.670776,0 -1.13484,-0.421249 v 0 0 Q 11.6593,10.558757 11.6593,9.9450689 v 0 0 q 0,-0.6136885 0.485243,-1.0275715 v 0 0 q 0.485243,-0.4138829 1.113203,-0.4138829 v 0 0 q 0.656504,0 1.13438,0.4281548 v 0 0 q 0.478337,0.4281547 0.478337,1.0132996 v 0 0 q 0,0.6279601 -0.485243,1.0418431 v 0 0 q -0.485242,0.413883 -1.127474,0.413883 z m 5.466111,8.220574 V 11.971668 H 16.682984 V 9.8023506 h 7.40708 v 2.1693174 h -2.040872 v 7.649701 z"
       fill-rule="evenodd"
       fill="#ffffff"
       id="path8"
       style="isolation:isolate;stroke-width:0.460381" />
  </g>
  <g
     aria-label="ESCENIT"
     id="text732"
     style="font-size:22.5764px;font-family:'Paytone One';-inkscape-font-specification:'Paytone One';fill:#582d79;stroke-width:1.88136">
    <path
       d="M 46.043693,21.254993 V 5.7224297 h 10.904401 v 3.4316129 h -5.418336 v 2.7543214 h 4.944232 v 2.844626 h -4.944232 v 2.957509 h 5.418336 v 3.544494 z"
       id="path420" />
    <path
       d="m 63.721013,21.616216 q -1.422313,0 -2.889779,-0.361223 -1.467466,-0.338646 -2.483404,-0.925632 l 0.81275,-3.679953 q 1.309431,0.699868 2.438251,0.925632 1.151397,0.203188 2.122182,0.203188 0.903056,0 1.354584,-0.293493 0.474105,-0.293494 0.474105,-0.790175 0,-0.451528 -0.519258,-0.699868 -0.519257,-0.270917 -1.354584,-0.496681 -0.81275,-0.225764 -1.738383,-0.519257 -0.925632,-0.31607 -1.760959,-0.81275 -0.81275,-0.519258 -1.332007,-1.354584 -0.519258,-0.857904 -0.519258,-2.144759 0,-1.6255004 0.790174,-2.7994732 0.790174,-1.1965493 2.25764,-1.8286885 1.467467,-0.6547156 3.45419,-0.6547156 1.332007,0 2.596286,0.3612224 1.286855,0.338646 2.054452,0.9256324 l -0.767597,3.318731 Q 67.559001,9.515265 66.633369,9.3120774 q -0.903056,-0.225764 -1.715807,-0.225764 -0.948208,0 -1.444889,0.2709168 -0.496681,0.2709168 -0.496681,0.7224448 0,0.428952 0.519257,0.699868 0.519257,0.270917 1.332008,0.519258 0.81275,0.24834 1.738383,0.56441 0.925632,0.316069 1.738382,0.835327 0.812751,0.519257 1.332008,1.354584 0.519257,0.835326 0.519257,2.099605 0,2.618862 -1.715806,4.041176 -1.69323,1.422313 -4.718468,1.422313 z"
       id="path422" />
    <path
       d="m 79.118112,21.616216 q -2.438251,0 -4.26694,-0.970785 -1.806112,-0.993362 -2.82205,-2.776898 -0.993361,-1.783535 -0.993361,-4.154057 0,-2.438252 1.038514,-4.312093 1.061091,-1.8738412 2.889779,-2.9349321 1.851265,-1.0836672 4.244364,-1.0836672 2.664015,0 4.176634,1.0385144 L 82.775489,10.011946 Q 82.120774,9.6958763 81.398329,9.5604178 80.69846,9.402383 80.066321,9.402383 q -1.851265,0 -2.912356,1.106244 -1.06109,1.106243 -1.06109,3.07039 0,1.851265 1.015938,2.912356 1.038514,1.038514 2.867202,1.038514 0.722445,0 1.309432,-0.135458 0.609563,-0.135458 1.490042,-0.496681 l 0.632139,3.567071 q -1.964146,1.151397 -4.289516,1.151397 z"
       id="path424" />
    <path
       d="M 85.033118,21.254993 V 5.7224297 H 95.93752 v 3.4316129 h -5.418336 v 2.7543214 h 4.944231 v 2.844626 h -4.944231 v 2.957509 h 5.418336 v 3.544494 z"
       id="path426" />
    <path
       d="M 97.969398,21.254993 V 5.7224297 h 4.515282 l 6.09563,8.2403863 V 5.7224297 h 4.15405 V 21.254993 h -4.51528 l -6.09562,-7.90174 v 7.90174 z"
       id="path428" />
    <path
       d="M 115.21776,21.254993 V 5.7224297 h 5.10227 V 21.254993 Z"
       id="path430" />
    <path
       d="M 125.24166,21.254993 V 9.289501 h -3.49935 V 5.7224297 H 134.0013 V 9.289501 h -3.49934 v 11.965492 z"
       id="path432" />
  </g>
</svg>
